<svg width="20" height="20" viewBox="0 0 20 20" fill="none" xmlns="http://www.w3.org/2000/svg">
<path fill-rule="evenodd" clip-rule="evenodd" d="M9.59967 4.24411C9.92511 4.56954 9.92511 5.09718 9.59967 5.42262L4.35559 10.6667L9.59967 15.9108C9.92511 16.2362 9.92511 16.7638 9.59967 17.0893C9.27424 17.4147 8.7466 17.4147 8.42116 17.0893L1.99857 10.6667L8.42116 4.24411C8.7466 3.91867 9.27424 3.91867 9.59967 4.24411Z" fill="#1C1C1C"/>
<path fill-rule="evenodd" clip-rule="evenodd" d="M18.1836 10.6673C18.1836 10.2071 17.8105 9.83401 17.3503 9.83401H7.35026C6.89002 9.83401 6.51692 10.2071 6.51692 10.6673C6.51692 11.1276 6.89002 11.5007 7.35026 11.5007H17.3503C17.8105 11.5007 18.1836 11.1276 18.1836 10.6673Z" fill="#1C1C1C"/>
</svg>
