<svg width="16" height="16" viewBox="0 0 16 16" fill="none" xmlns="http://www.w3.org/2000/svg">
<path fill-rule="evenodd" clip-rule="evenodd" d="M12.0334 2.8274C9.44673 1.72313 6.54965 1.72313 3.96297 2.8274L3.81463 2.89073C3.24247 3.13499 2.9739 3.87981 3.30416 4.48294L3.47604 4.79683C3.54363 4.92026 3.57042 5.06192 3.55259 5.20151L3.38128 6.54228L2.67476 12.7391C2.5855 13.4377 3.10464 13.9992 3.70077 13.9992C4.06896 13.9992 4.36743 14.2977 4.36743 14.6659C4.36743 15.0341 4.06896 15.3325 3.70077 15.3325C2.23948 15.3325 1.17164 14.0045 1.3515 12.575L2.05807 6.37777L2.20257 5.2473L2.13468 5.12332C1.44453 3.86296 1.95972 2.23285 3.29113 1.66446L3.43947 1.60114C6.36055 0.354105 9.63583 0.354105 12.5569 1.60114L12.7052 1.66446C14.0367 2.23285 14.5519 3.86296 13.8617 5.12332L13.7918 5.25089L14.6448 12.5742C14.8251 14.004 13.7572 15.3325 12.2956 15.3325H6.29589C5.9277 15.3325 5.62922 15.0341 5.62922 14.6659C5.62922 14.2977 5.9277 13.9992 6.29589 13.9992H12.2956C12.8917 13.9992 13.4109 13.4377 13.3217 12.7391L13.3207 12.7318L12.4429 5.19414C12.4269 5.05688 12.454 4.91804 12.5203 4.79683L12.6922 4.48294C13.0225 3.87981 12.7539 3.13499 12.1817 2.89073L12.0334 2.8274Z" fill="#1C1C1C"/>
<path d="M5.99966 6.66517C5.99966 7.03336 5.70118 7.33184 5.33299 7.33184C4.9648 7.33184 4.66632 7.03336 4.66632 6.66517C4.66632 6.29698 4.9648 5.9985 5.33299 5.9985C5.70118 5.9985 5.99966 6.29698 5.99966 6.66517Z" fill="#1C1C1C"/>
<path d="M7.33282 4.66545C7.33282 5.03364 7.03434 5.33211 6.66615 5.33211C6.29796 5.33211 5.99949 5.03364 5.99949 4.66545C5.99949 4.29726 6.29796 3.99878 6.66615 3.99878C7.03434 3.99878 7.33282 4.29726 7.33282 4.66545Z" fill="#1C1C1C"/>
<path d="M9.33087 6.66517C9.33087 7.03336 9.03239 7.33184 8.6642 7.33184C8.29601 7.33184 7.99753 7.03336 7.99753 6.66517C7.99753 6.29698 8.29601 5.9985 8.6642 5.9985C9.03239 5.9985 9.33087 6.29698 9.33087 6.66517Z" fill="#1C1C1C"/>
<path d="M11.3323 4.66545C11.3323 5.03364 11.0338 5.33211 10.6656 5.33211C10.2974 5.33211 9.99897 5.03364 9.99897 4.66545C9.99897 4.29726 10.2974 3.99878 10.6656 3.99878C11.0338 3.99878 11.3323 4.29726 11.3323 4.66545Z" fill="#1C1C1C"/>
<path d="M7.9977 9.3332C7.9977 9.70139 7.69923 9.99987 7.33104 9.99987C6.96285 9.99987 6.66437 9.70139 6.66437 9.3332C6.66437 8.96501 6.96285 8.66653 7.33104 8.66653C7.69923 8.66653 7.9977 8.96501 7.9977 9.3332Z" fill="#1C1C1C"/>
<path d="M11.3323 8.00004C11.3323 8.36823 11.0338 8.66671 10.6656 8.66671C10.2974 8.66671 9.99897 8.36823 9.99897 8.00004C9.99897 7.63185 10.2974 7.33337 10.6656 7.33337C11.0338 7.33337 11.3323 7.63185 11.3323 8.00004Z" fill="#1C1C1C"/>
</svg>
