<svg width="16" height="16" viewBox="0 0 16 16" fill="none" xmlns="http://www.w3.org/2000/svg">
<path fill-rule="evenodd" clip-rule="evenodd" d="M4.66667 2.66666C4.29848 2.66666 4 2.96514 4 3.33333V12.7045C4.29961 12.4905 4.71598 12.5599 4.92998 12.8595C5.14399 13.1591 5.07459 13.5755 4.77499 13.7895C3.89249 14.4199 2.66667 13.789 2.66667 12.7045V3.33333C2.66667 2.22876 3.5621 1.33333 4.66667 1.33333H11.3333C12.4379 1.33333 13.3333 2.22876 13.3333 3.33333V12.7045C13.3333 13.789 12.1075 14.4199 11.225 13.7895L7.98694 11.4766L6.8698 12.2214C6.56345 12.4256 6.14954 12.3428 5.9453 12.0365C5.74107 11.7301 5.82385 11.3162 6.1302 11.112L7.6302 10.112C7.86066 9.95832 8.16211 9.96318 8.38749 10.1242L12 12.7045V3.33333C12 2.96514 11.7015 2.66666 11.3333 2.66666H4.66667Z" fill="#1C1C1C"/>
</svg>
