<svg width="17" height="17" viewBox="0 0 17 17" fill="none" xmlns="http://www.w3.org/2000/svg">
<path fill-rule="evenodd" clip-rule="evenodd" d="M1.19778 11.2318C0.937434 10.9715 0.937434 10.5494 1.19778 10.289C2.73428 8.75254 5.22542 8.75254 6.76191 10.289C8.29841 11.8255 8.29841 14.3167 6.76191 15.8532C6.50156 16.1135 6.07945 16.1135 5.81911 15.8532L1.19778 11.2318ZM2.67297 10.8214L6.22954 14.378C6.80876 13.3824 6.67195 12.0847 5.81911 11.2318C4.96627 10.379 3.66854 10.2422 2.67297 10.8214Z" fill="#1C1C1C"/>
<path fill-rule="evenodd" clip-rule="evenodd" d="M6.63348 11.3732C6.2906 11.5074 5.90388 11.3382 5.76972 10.9953C4.74545 8.37773 4.27379 4.89054 6.96853 2.19581C9.67932 -0.514992 13.494 0.178179 15.6549 1.25863C15.9843 1.42329 16.1177 1.82374 15.9531 2.15306C15.7884 2.48237 15.388 2.61586 15.0587 2.4512C13.1117 1.47772 10.0215 1.02843 7.91134 3.13861C5.78509 5.26486 6.05507 8.06557 7.01137 10.5094C7.14554 10.8523 6.97635 11.239 6.63348 11.3732Z" fill="#1C1C1C"/>
<path fill-rule="evenodd" clip-rule="evenodd" d="M7.3289 1.95816C7.58925 1.69781 8.01136 1.69781 8.27171 1.95816L13.4561 7.1426C13.7165 7.40294 13.7165 7.82505 13.4561 8.0854C13.1958 8.34575 12.7737 8.34575 12.5133 8.0854L7.3289 2.90097C7.06855 2.64062 7.06855 2.21851 7.3289 1.95816Z" fill="#1C1C1C"/>
<path fill-rule="evenodd" clip-rule="evenodd" d="M8.66099 11.1976C8.63689 11.565 8.91519 11.8824 9.28259 11.9065C10.9041 12.0129 13.2411 12.0176 15.0156 10.2431C17.7264 7.53233 17.0332 3.71761 15.9528 1.55671C15.7881 1.2274 15.3876 1.09391 15.0583 1.25857C14.729 1.42323 14.5955 1.82368 14.7602 2.153C15.7337 4.09995 16.183 7.19013 14.0728 9.30032C12.7484 10.6247 10.9664 10.6808 9.36987 10.576C9.00247 10.5519 8.6851 10.8302 8.66099 11.1976Z" fill="#1C1C1C"/>
<path d="M13.6587 3.71354C13.6587 4.08173 13.3602 4.38021 12.992 4.38021C12.6238 4.38021 12.3253 4.08173 12.3253 3.71354C12.3253 3.34535 12.6238 3.04688 12.992 3.04688C13.3602 3.04688 13.6587 3.34535 13.6587 3.71354Z" fill="#1C1C1C"/>
</svg>
