<svg width="16" height="16" viewBox="0 0 16 16" fill="none" xmlns="http://www.w3.org/2000/svg">
<path fill-rule="evenodd" clip-rule="evenodd" d="M7.99998 7.33333C7.30061 7.33333 6.67624 7.52301 6.23759 7.83243C5.93672 8.04466 5.52077 7.9728 5.30854 7.67194C5.09631 7.37107 5.16817 6.95512 5.46904 6.74289C6.17114 6.24763 7.07671 6 7.99998 6C9.05337 6 10.0349 6.3569 10.7633 6.94166C11.4899 7.52494 12 8.36919 12 9.33333C12 10.2975 11.4899 11.1417 10.7633 11.725C10.0349 12.3098 9.05337 12.6667 7.99998 12.6667C6.03706 12.6667 4.19569 11.4204 4.00369 9.60872C3.96489 9.24258 4.23025 8.91431 4.59639 8.87551C4.96253 8.8367 5.2908 9.10206 5.3296 9.4682C5.42746 10.3916 6.48464 11.3333 7.99998 11.3333C8.75818 11.3333 9.44333 11.0748 9.92866 10.6852C10.4158 10.2942 10.6666 9.80508 10.6666 9.33333C10.6666 8.86158 10.4158 8.37249 9.92866 7.98142C9.44333 7.59182 8.75818 7.33333 7.99998 7.33333Z" fill="#1C1C1C"/>
<path fill-rule="evenodd" clip-rule="evenodd" d="M0 1.33332C0 0.965133 0.298477 0.666656 0.666667 0.666656H2.70553C3.71006 0.666656 4.57263 1.20932 5.00421 2.04243C5.95095 1.63436 6.92344 1.49424 8.03289 1.49424C9.13542 1.49424 10.1119 1.63243 11.0317 2.04365C11.4826 1.22431 12.3186 0.666656 13.2945 0.666656H15.3333C15.7015 0.666656 16 0.965133 16 1.33332V3.33332C16 4.2919 15.5047 5.16147 14.7534 5.64684C15.2038 6.60521 15.3423 7.58835 15.3423 8.71263C15.3423 9.93823 15.0292 11.0542 14.4976 12.0533C14.3246 12.3783 13.9209 12.5016 13.5959 12.3286C13.2709 12.1556 13.1476 11.7519 13.3205 11.4269C13.758 10.6048 14.009 9.70248 14.009 8.71263C14.009 7.4797 13.8254 6.58346 13.258 5.691C13.1426 5.50945 13.1219 5.28336 13.2024 5.08386C13.2829 4.88435 13.4547 4.73596 13.6638 4.68536C14.2066 4.55403 14.6667 4.00476 14.6667 3.33332V1.99999H13.2945C12.7255 1.99999 12.1815 2.43112 12.0403 3.12197C11.9965 3.33634 11.8503 3.51557 11.6491 3.60154C11.4479 3.68751 11.2173 3.66929 11.0321 3.55277C10.1878 3.02155 9.27313 2.82758 8.03289 2.82758C6.79797 2.82758 5.87242 3.01956 4.95155 3.56272C4.75928 3.67612 4.52301 3.68578 4.32213 3.58843C4.12125 3.49109 3.98242 3.29967 3.95229 3.07849C3.86607 2.44561 3.36098 1.99999 2.70553 1.99999H1.33333V3.40229C1.33333 4.03856 1.76442 4.5679 2.38408 4.76783C2.58048 4.8312 2.73646 4.98195 2.80649 5.17608C2.87651 5.3702 2.85269 5.58582 2.74196 5.75997C2.17456 6.65242 1.99103 7.54867 1.99103 8.7816C1.99103 11.9855 4.70374 14.6667 8.03289 14.6667C9.40628 14.6667 10.703 14.2282 11.6936 13.4339C11.9808 13.2036 12.4004 13.2497 12.6307 13.537C12.8611 13.8242 12.8149 14.2438 12.5277 14.4741C11.282 15.473 9.6849 16 8.03289 16C3.99581 16 0.657698 12.7501 0.657698 8.7816C0.657698 7.64845 0.798434 6.65868 1.25728 5.69314C0.521474 5.20988 0 4.39656 0 3.40229V1.33332Z" fill="#1C1C1C"/>
</svg>
