<svg width="16" height="16" viewBox="0 0 16 16" fill="none" xmlns="http://www.w3.org/2000/svg">
<path fill-rule="evenodd" clip-rule="evenodd" d="M5.34476 2.71998C5.68346 2.86436 5.84098 3.25598 5.6966 3.59468L4 7.57468V13.3333C4 14.0696 4.59695 14.6666 5.33333 14.6666H10.6667C11.403 14.6666 12 14.0696 12 13.3332V7.57468L10.4761 3.99992H8C7.63181 3.99992 7.33333 3.70144 7.33333 3.33325C7.33333 2.96506 7.63181 2.66658 8 2.66658H10.9167C11.1838 2.66658 11.4252 2.82607 11.5299 3.07182L13.2799 7.17709C13.3152 7.25974 13.3333 7.34866 13.3333 7.43851V13.3332C13.3333 14.806 12.1394 15.9999 10.6667 15.9999H5.33333C3.86057 15.9999 2.66666 14.806 2.66666 13.3333V7.43851C2.66666 7.34866 2.68483 7.25974 2.72006 7.17709L4.47006 3.07182C4.61444 2.73312 5.00606 2.5756 5.34476 2.71998Z" fill="#1C1C1C"/>
<path fill-rule="evenodd" clip-rule="evenodd" d="M5.33333 8.66668C5.33333 7.9303 5.93028 7.33334 6.66666 7.33334H10C10.3682 7.33334 10.6667 7.63182 10.6667 8.00001C10.6667 8.3682 10.3682 8.66668 10 8.66668H6.66666V10.6667H12C12.3682 10.6667 12.6667 10.9652 12.6667 11.3333C12.6667 11.7015 12.3682 12 12 12H6.66666C5.93028 12 5.33333 11.4031 5.33333 10.6667V8.66668Z" fill="#1C1C1C"/>
<path fill-rule="evenodd" clip-rule="evenodd" d="M4.66666 0.666667C4.66666 0.298477 4.96514 0 5.33333 0H10.6667C11.0349 0 11.3333 0.298477 11.3333 0.666667C11.3333 1.03486 11.0349 1.33333 10.6667 1.33333H5.33333C4.96514 1.33333 4.66666 1.03486 4.66666 0.666667Z" fill="#1C1C1C"/>
</svg>
