<svg width="16" height="16" viewBox="0 0 16 16" fill="none" xmlns="http://www.w3.org/2000/svg">
<path fill-rule="evenodd" clip-rule="evenodd" d="M0.862254 8.86238C1.1226 8.60203 1.54471 8.60203 1.80506 8.86238L4.66699 11.7243L7.52892 8.86238C7.78927 8.60203 8.21138 8.60203 8.47173 8.86238C8.73208 9.12273 8.73208 9.54484 8.47173 9.80519L4.66699 13.6099L0.862254 9.80519C0.601905 9.54484 0.601905 9.12273 0.862254 8.86238Z" fill="#1C1C1C"/>
<path fill-rule="evenodd" clip-rule="evenodd" d="M4.66642 2.00024C4.29823 2.00024 3.99976 2.29872 3.99976 2.66691L3.99976 9.33358C3.99976 9.70177 4.29823 10.0002 4.66642 10.0002C5.03461 10.0002 5.33309 9.70177 5.33309 9.33358L5.33309 2.66691C5.33309 2.29872 5.03461 2.00024 4.66642 2.00024Z" fill="#1C1C1C"/>
<path fill-rule="evenodd" clip-rule="evenodd" d="M16 12.6654C16 13.0336 15.7015 13.332 15.3333 13.332L10.6667 13.332C10.2985 13.332 10 13.0336 10 12.6654C10 12.2972 10.2985 11.9987 10.6667 11.9987L15.3333 11.9987C15.7015 11.9987 16 12.2972 16 12.6654Z" fill="#1C1C1C"/>
<path fill-rule="evenodd" clip-rule="evenodd" d="M14.668 9.3326C14.668 9.70079 14.3695 9.99927 14.0013 9.99927L10.668 9.99927C10.2998 9.99927 10.0013 9.70079 10.0013 9.3326C10.0013 8.96441 10.2998 8.66593 10.668 8.66593L14.0013 8.66593C14.3695 8.66593 14.668 8.96441 14.668 9.3326Z" fill="#1C1C1C"/>
<path fill-rule="evenodd" clip-rule="evenodd" d="M13.3333 5.99984C13.3333 6.36803 13.0348 6.6665 12.6666 6.6665L10.6666 6.6665C10.2984 6.6665 9.99992 6.36803 9.99992 5.99984C9.99992 5.63165 10.2984 5.33317 10.6666 5.33317L12.6666 5.33317C13.0348 5.33317 13.3333 5.63165 13.3333 5.99984Z" fill="#1C1C1C"/>
<path fill-rule="evenodd" clip-rule="evenodd" d="M12.0012 2.66573C12.0012 3.03392 11.7027 3.3324 11.3346 3.3324L10.6679 3.3324C10.2997 3.3324 10.0012 3.03392 10.0012 2.66573C10.0012 2.29754 10.2997 1.99906 10.6679 1.99906L11.3346 1.99906C11.7027 1.99906 12.0012 2.29754 12.0012 2.66573Z" fill="#1C1C1C"/>
</svg>
